<?xml version="1.0" standalone="no"?>
<!DOCTYPE svg PUBLIC "-//W3C//DTD SVG 20010904//EN" "http://www.w3.org/TR/2001/REC-SVG-20010904/DTD/svg10.dtd">
<!-- Created using Krita: https://krita.org -->
<svg xmlns="http://www.w3.org/2000/svg" 
    xmlnsXlink="http://www.w3.org/1999/xlink"
    xmlnsKrita="http://krita.org/namespaces/svg/krita"
    xmlnsSodipodi="http://sodipodi.sourceforge.net/DTD/sodipodi-0.dtd"
    width="612pt"
    height="612pt"
    viewBox="0 0 612 612">
<defs/>
<rect id="shape0" transform="translate(118.08, 318.72)" fill="none" stroke="current" stroke-width="9.6" stroke-linecap="square" stroke-linejoin="bevel" width="153.6" height="102.72" rx="15.360015352585" ry="15.360015352585"/>
<rect id="shape0" transform="matrix(1.00000003987489 0 0 1.00000003987489 120.000005144392 300.480008536416)" fill="none" stroke="#000000" stroke-opacity="0" stroke-width="0" stroke-linecap="square" stroke-linejoin="bevel" width="182.4" height="61.44"/>
<rect id="shape1" transform="translate(348.48, 319.68)" fill="none" stroke="current" stroke-width="9.6" stroke-linecap="square" stroke-linejoin="bevel" width="153.6" height="102.72" rx="15.360015352585" ry="15.360015352585"/>
<rect id="shape01" transform="matrix(1.00000003987489 0 0 1.00000003987489 350.400005144392 301.440008536416)" fill="none" stroke="#000000" stroke-opacity="0" stroke-width="0" stroke-linecap="square" stroke-linejoin="bevel" width="182.4" height="61.44"/>
<path id="shape2" transform="translate(272.63998269788, 361.919977032045)" fill="none" stroke="current" stroke-width="9.6" stroke-linecap="square" stroke-linejoin="miter" stroke-miterlimit="2" d="M0 0.96L73.92 0"/>
<text id="shape3" kritaUseRichText="true" transform="translate(164.159989582174, 404.719975204357)" fill="current" stroke="#000000" stroke-opacity="0" stroke-width="0" stroke-linecap="square" stroke-linejoin="bevel" font-family="DejaVu Sans" font-size="72" font-size-adjust="0.473684" font-stretch="normal" letter-spacing="0" word-spacing="0">
<tspan x="0">K</tspan>
</text>
<text id="shape4" kritaUseRichText="true" transform="translate(388.799975326203, 404.719975204357)" fill="current" stroke="#000000" stroke-opacity="0" stroke-width="0" stroke-linecap="square" stroke-linejoin="bevel" font-family="DejaVu Sans" font-size="72" font-size-adjust="0.473684" font-stretch="normal" letter-spacing="0" word-spacing="0">
<tspan x="0">O</tspan>
</text>
<path id="shape5" transform="translate(101.759993542167, 118.075601695584)" fill="none" stroke="current" stroke-width="9.6" stroke-linecap="square" stroke-linejoin="miter" stroke-miterlimit="2" d="M0 160.324C17.8944 50.3086 101.019 -0.54425 204.24 0.00439081C307.461 0.553032 376.058 54.4232 408.96 161.284"/>
<path id="shape6" transform="translate(32.6399979286194, 279.35998227142)" fill="none" stroke="current" stroke-width="9.6" stroke-linecap="square" stroke-linejoin="miter" stroke-miterlimit="2" d="M477.12 0.96L0 0"/>
<path id="shape7" transform="translate(191.999987815409, 121.919992262784)" fill="none" stroke="current" stroke-width="9.6" stroke-linecap="square" stroke-linejoin="miter" stroke-miterlimit="2" d="M85.44 0C58.909 23.0896 43.2921 38.9838 26.88 66.24C10.4679 93.4962 4.78064 125.394 0 157.44"/>
<path id="shape8" transform="translate(345.599978067736, 122.879992201862)" fill="none" stroke="current" stroke-width="9.6" stroke-linecap="square" stroke-linejoin="miter" stroke-miterlimit="2" d="M0 0C34.8356 41.9459 54.4444 92.7741 58.56 152.64"/>
</svg>
